<svg width="94" height="24" viewBox="0 0 94 24" fill="none" xmlns="http://www.w3.org/2000/svg">
<path d="M6.90677 11.3472C5.76131 12.8651 4.40958 13.9656 2.7775 13.9656C1.01925 13.9656 0.00195312 12.8891 0.00195312 11.1694C0.00195312 6.95529 4.6599 0.00292969 9.06953 0.00292969C10.4873 0.00292969 10.9519 0.741905 10.9519 1.3251C10.9519 2.06407 10.5815 2.55539 9.84252 2.55539C9.37993 2.55539 9.10157 2.21786 9.10157 1.7565C9.10157 1.3251 9.44 1.14135 9.44 0.863736C9.44 0.526204 9.25577 0.248589 8.88529 0.248589C7.00289 0.248589 5.55504 2.4016 4.78406 3.69381C3.76676 5.41742 1.7622 10.031 1.7622 11.9983C1.7622 12.8291 2.13267 13.66 3.11993 13.66C4.41158 13.66 5.70523 12.5356 6.75057 11.1834L6.90677 11.3472Z" fill="white"></path>
<path d="M40.0889 11.3472C38.9434 12.8651 37.5917 13.9656 35.9596 13.9656C34.2014 13.9656 33.1841 12.8891 33.1841 11.1694C33.1841 6.95529 37.842 0.00292969 42.2517 0.00292969C43.6695 0.00292969 44.1341 0.741905 44.1341 1.3251C44.1341 2.06407 43.7636 2.55539 43.0246 2.55539C42.5621 2.55539 42.2837 2.21786 42.2837 1.7565C42.2837 1.3251 42.6221 1.14135 42.6221 0.863736C42.6221 0.526204 42.4379 0.248589 42.0674 0.248589C40.185 0.248589 38.7372 2.4016 37.9662 3.69381C36.9489 5.41742 34.9443 10.031 34.9443 11.9983C34.9443 12.8291 35.3148 13.66 36.3021 13.66C37.5937 13.66 38.8874 12.5356 39.9327 11.1834L40.0889 11.3472Z" fill="white"></path>
<path fill-rule="evenodd" clip-rule="evenodd" d="M10.6416 9.41295C10.6416 11.6878 11.4747 13.9646 13.9418 13.9646C18.2593 13.9646 21.5676 8.27453 21.5555 4.64556C21.5555 1.26025 20.1397 0 18.3514 0C14.126 0 10.6416 5.87585 10.6416 9.41295ZM11.9993 11.5682C11.9993 8.52077 15.6413 0.185669 18.4447 0.184028C19.8935 0.184626 20.1657 1.29082 20.1718 2.49482C20.1718 6.36346 16.3469 13.7532 13.6014 13.7532C12.4619 13.7532 11.9993 12.7985 11.9993 11.5682ZM18.4447 0.184028C18.445 0.184028 18.4453 0.184028 18.4456 0.184028H18.4435C18.4439 0.184028 18.4443 0.184028 18.4447 0.184028Z" fill="white"></path>
<path d="M25.0683 2.42064C26.44 0.930709 27.7737 0 28.777 0C29.4238 0 29.548 0.523274 29.548 1.19834C29.548 1.78353 28.9012 3.65893 28.1602 5.22875H28.2223C30.0106 1.96727 31.923 0 33.7734 0C34.7606 0 35.4695 0.46136 35.4695 1.47595C35.4695 2.02919 35.037 2.64433 34.4522 2.64433C34.0197 2.64433 33.6192 2.42863 33.4029 1.59778C33.3069 1.16525 32.9219 0.857727 32.4777 0.858809C31.1821 0.858809 29.1475 3.78076 27.8819 6.33522C26.5562 9.0115 25.2285 12.0872 24.5516 13.6251H22.6392L25.3847 7.47364C26.5862 4.76739 27.7597 2.05914 27.7597 1.56783C27.7739 1.43898 27.7308 1.31039 27.6419 1.2159C27.5529 1.12141 27.4269 1.07048 27.2971 1.07651C26.8385 1.07651 26.0735 1.70563 25.2285 2.60639L25.0683 2.42064Z" fill="white"></path>
<path d="M58.2523 2.42064C59.6241 0.930709 60.9578 0 61.9611 0C62.6079 0 62.7321 0.523274 62.7321 1.19834C62.7321 1.78353 62.0852 3.65893 61.3443 5.22875H61.4064C63.1947 1.96727 65.1071 0 66.9575 0C67.9447 0 68.6536 0.46136 68.6536 1.47595C68.6536 2.02919 68.2211 2.64433 67.6363 2.64433C67.2038 2.64433 66.8033 2.42863 66.587 1.59778C66.491 1.16525 66.106 0.857727 65.6618 0.858809C64.3661 0.858809 62.3316 3.78076 61.0659 6.33522C59.7402 9.0115 58.4125 12.0872 57.7357 13.6251H55.8232L58.5687 7.47364C59.7703 4.76739 60.9438 2.05914 60.9438 1.56783C60.958 1.43898 60.9149 1.31039 60.826 1.2159C60.737 1.12141 60.611 1.07048 60.4812 1.07651C60.0226 1.07651 59.2576 1.70563 58.4125 2.60639L58.2523 2.42064Z" fill="white"></path>
<path fill-rule="evenodd" clip-rule="evenodd" d="M43.8237 9.41295C43.8237 11.6878 44.6568 13.9646 47.1239 13.9646C51.4415 13.9646 54.7417 8.27453 54.7377 4.64556C54.7377 1.26025 53.3219 0 51.5336 0C47.3082 0 43.8237 5.87585 43.8237 9.41295ZM45.1814 11.5682C45.1814 8.52047 48.8241 0.184028 51.6277 0.184028C53.0775 0.184028 53.3539 1.29049 53.3539 2.49482C53.3539 6.36346 49.529 13.7532 46.7835 13.7532C45.644 13.7532 45.1814 12.7985 45.1814 11.5682Z" fill="white"></path>
<path fill-rule="evenodd" clip-rule="evenodd" d="M74.1968 13.9646C75.0819 13.9646 76.684 12.984 78.286 11.1006L78.1338 10.9109C77.1285 12.0573 76.1333 12.8062 75.7968 12.8062C75.5505 12.8062 75.3963 12.7144 75.3963 12.3449C75.3963 11.8116 75.9851 10.3357 77.5871 6.95236C77.5871 6.95236 80.2405 1.44599 80.7331 0.339529H78.9749L78.4823 1.29221C78.1719 0.523274 77.6192 0 76.5698 0C72.1302 0 65.8682 7.96695 65.8682 11.7197C65.8682 13.1338 66.8254 13.9646 68.2132 13.9646C70.4941 13.9646 72.5927 11.9335 74.8436 8.55014H74.9057C73.7642 11.1026 73.4258 12.3948 73.4258 13.2876C73.4258 13.719 73.7642 13.9646 74.1968 13.9646ZM67.8746 11.7712C67.8746 9.00309 73.2715 0.235243 76.3874 0.235243C77.2505 0.235243 77.7752 0.674634 77.7812 1.68124C77.7812 4.41944 72.132 13.4329 69.1702 13.4329C68.3992 13.4329 67.8746 12.9097 67.8746 11.7712Z" fill="white"></path>
<path d="M92.1213 11.3412C90.3891 13.3564 89.2837 13.9656 88.2003 13.9656C87.7678 13.9656 87.4594 13.5961 87.4594 13.1048C87.4594 12.3977 88.1062 10.9817 89.7102 7.56844C90.7596 5.32355 91.9932 2.89292 91.9932 1.87833C91.9932 1.60071 91.901 1.04748 91.3764 1.04748C89.8044 1.04748 86.6884 4.6425 84.2833 9.29205C83.5491 10.6979 82.9005 12.1465 82.3408 13.63H80.5205C80.921 12.5835 82.0324 10.061 83.1118 7.60039C84.6538 4.0633 85.3026 2.37165 85.3026 1.63267C85.3026 1.38701 85.1785 1.1094 84.9321 1.1094C84.5316 1.1094 83.8888 1.61469 82.6713 3.21847L82.499 3.08865C84.2072 0.747897 85.4348 0.00292969 86.412 0.00292969C86.9367 0.00292969 87.183 0.402376 87.183 1.07944C87.183 1.9722 86.382 4.21709 84.7159 7.8161H84.7779C86.7805 4.30896 90.1148 0.00292969 92.642 0.00292969C93.5371 0.00292969 93.9997 0.434332 93.9997 1.3251C93.9997 2.27778 93.1046 4.18513 91.5626 7.41665C90.2049 10.2767 89.526 11.6927 89.526 12.246C89.5158 12.3659 89.557 12.4846 89.6395 12.5725C89.7219 12.6605 89.8379 12.7094 89.9586 12.7073C90.301 12.7073 90.8958 12.3778 91.9611 11.1994L92.1213 11.3412Z" fill="white"></path>
<path d="M0 23.6416L0 21.6024L93.8959 21.6024V23.6416L0 23.6416Z" fill="url(#paint0_linear_1378_23527)"></path>
<defs>
<linearGradient id="paint0_linear_1378_23527" x1="0" y1="23.6426" x2="93.8959" y2="23.6426" gradientUnits="userSpaceOnUse">
<stop stop-color="#AFC0D2"></stop>
<stop offset="0.14" stop-color="#AFC0D2"></stop>
<stop offset="0.5" stop-color="#FFD239"></stop>
<stop offset="1" stop-color="#F2717C"></stop>
</linearGradient>
</defs>
</svg>